<?xml version="1.0" ?>
<!DOCTYPE svg  PUBLIC '-//W3C//DTD SVG 1.1//EN'  'http://www.w3.org/Graphics/SVG/1.1/DTD/svg11.dtd'>
<!-- Uploaded to: SVG Repo, www.svgrepo.com, Generator: SVG Repo Mixer Tools -->
<svg width="800px" height="800px" viewBox="0 0 32 32" enable-background="new 0 0 32 32" version="1.1" xml:space="preserve" xmlns="http://www.w3.org/2000/svg" xmlns:xlink="http://www.w3.org/1999/xlink">
<g id="Files_Folder40"/>
<g id="Files_Folder39"/>
<g id="Files_Folder38"/>
<g id="Files_Folder37"/>
<g id="Files_Folder36"/>
<g id="Files_Folder35"/>
<g id="Files_Folder34"/>
<g id="Files_Folder33"/>
<g id="Files_Folder32"/>
<g id="Files_Folder31"/>
<g id="Files_Folder30"/>
<g id="Files_Folder29"/>
<g id="Files_Folder28"/>
<g id="Files_Folder27"/>
<g id="Files_Folder26"/>
<g id="Files_Folder25">
<path d="M31,10v17c0,0.55-0.45,1-1,1H2c-0.55,0-1-0.45-1-1V5c0-0.55,0.45-1,1-1h11c0.35,0,0.68,0.18,0.86,0.49   L16.57,9H30C30.55,9,31,9.45,31,10z" fill="#FFC10A"/>
<g>
<path d="M19.6367,24c-0.0068,0-0.0146,0-0.0215,0c-0.3125-0.0068-0.6035-0.1592-0.7871-0.4121l-3.6367-5    c-0.3252-0.4463-0.2266-1.0713,0.2207-1.3965c0.4473-0.3242,1.0723-0.2275,1.3965,0.2207l2.8633,3.9365l5.5459-6.9707    c0.3428-0.4326,0.9717-0.5049,1.4043-0.1602c0.4326,0.3438,0.5039,0.9727,0.1602,1.4043l-6.3633,8    C20.2295,23.8613,19.9414,24,19.6367,24z" fill="#FE9803"/>
</g>
</g>
<g id="Files_Folder24"/>
<g id="Files_Folder23"/>
<g id="Files_Folder22"/>
<g id="Files_Folder21"/>
<g id="Files_Folder20"/>
<g id="Files_Folder19"/>
<g id="Files_Folder18"/>
<g id="Files_Folder17"/>
<g id="Files_Folder16"/>
<g id="Files_Folder15"/>
<g id="Files_Folder14"/>
<g id="Files_Folder13"/>
<g id="Files_Folder12"/>
<g id="Files_Folder11"/>
<g id="Files_Folder10"/>
<g id="Files_Folder09"/>
<g id="Files_Folder08"/>
<g id="Files_Folder07"/>
<g id="Files_Folder06"/>
<g id="Files_Folder05"/>
<g id="Files_Folder04"/>
<g id="Files_Folder03"/>
<g id="Files_Folder02"/>
<g id="Files_Folder01"/>
</svg>