<svg width="23" height="27" viewBox="0 0 23 27" fill="none" xmlns="http://www.w3.org/2000/svg">
<g clip-path="url(#clip0_230_173)">
<path d="M13.207 16.2422C13.237 16.3477 13.9707 16.0011 14.1654 15.9258C14.36 15.8354 15.2435 15.3382 15.4681 15.1875C15.6927 15.0368 16.5462 14.3287 16.651 14.2835C17.1901 15.1122 17.8789 16.0915 18.6576 17.0106C18.9271 17.327 19.7357 18.3516 20.2298 18.668C20.3047 18.7132 20.7389 18.7584 20.7988 18.7282C20.5592 18.5474 19.8704 17.6886 19.571 17.3421C19.1966 16.9051 17.4147 14.404 17.1152 13.8315C16.8008 13.2589 15.8574 11.3605 15.8125 11.1797C15.9622 11.1646 17.1452 11.5714 17.4596 11.6769C17.7591 11.7673 18.5827 11.9632 18.6426 12.0084C18.7025 12.0686 18.6576 12.2494 18.6875 12.3097C18.7174 12.37 18.987 12.5056 19.1517 12.5357C19.3014 12.5809 19.6458 12.596 19.8555 12.5357C20.0501 12.4905 20.2298 12.2946 20.2747 12.2193C20.2747 12.2193 20.3346 12.1289 20.3496 11.8728C20.1699 11.8125 19.8704 11.7974 19.541 11.707C19.2116 11.6166 18.403 11.3756 17.9688 11.2249C17.5345 11.0742 16.696 10.7578 16.4414 10.6975C16.1719 10.6523 15.498 10.2003 15.1387 10.0798C14.7793 9.95926 14.5247 9.80859 14.5098 9.88393C14.4948 9.95926 14.5098 10.2907 14.5247 10.3811C14.5397 10.4565 15.2585 11.8728 15.3633 12.0988C15.4232 12.2193 15.8424 13.0179 16.5163 14.0725C16.2767 14.178 15.7676 14.3889 15.5579 14.4944C15.3034 14.615 13.5215 15.3683 13.4316 15.3984C13.3418 15.4286 13.1771 16.1217 13.207 16.2422ZM16.2767 8.91964C16.2318 9.17578 16.3066 9.28125 16.3366 9.34152C16.4863 9.62779 16.8607 9.82366 17.0853 9.91406C17.3099 10.0045 17.6842 10.0949 17.9837 10.0949C18.1185 10.0798 18.388 10.0346 18.7174 9.70312C18.8971 9.50725 19.0319 8.97991 18.972 9.04018C18.9121 9.10045 18.4779 9.16071 18.2832 9.11551C18.0885 9.07031 17.6243 8.93471 17.4147 8.87444C17.1901 8.79911 16.7409 8.67857 16.5911 8.6635C16.4414 8.6635 16.3216 8.72377 16.2767 8.91964ZM5.82487 10.8633L4.88151 14.2835L6.96289 13.6507L5.82487 10.8633ZM22.416 22.9168L12.0241 19.4213L12.0241 3.87221L22.416 7.38281L22.416 22.9168ZM3.83333 18.1406L2.30599 18.6077L5.01627 8.70871L6.51367 8.24163L9.74805 16.3175L8.2207 16.7846L7.54687 15.1272L4.38737 16.1066L3.83333 18.1406ZM11.3652 3.64621L2.78515 6.41853L2.78515 0.693082L11.3652 3.64621ZM6.70833 23.5798L4.34245 23.7757L5.15104 26.1864L5.75 25.192C6.96289 25.9754 8.46029 26.5781 9.88281 26.8192C10.3171 26.9096 10.8112 27 11.2454 27L12.5033 27C14.0905 27 16.9805 26.0508 18.2383 25.1317C18.3281 25.0564 18.3581 24.9961 18.3581 24.8906C18.3581 24.7249 18.2383 24.6043 18.0885 24.6043C17.9538 24.6043 17.25 25.0413 17.0553 25.1317C15.7077 25.8097 13.821 26.4275 12.3086 26.4275C10.4368 26.4275 9.16406 26.1864 7.45703 25.4481C6.96289 25.2221 6.52865 24.9358 6.06445 24.6797L6.70833 23.5798ZM-1.26719e-06 7.32255L1.54063e-07 23.5798C11.5749 19.8733 11.5898 19.8733 11.5898 19.8733C11.8294 19.9788 22.5658 23.625 22.7155 23.625C22.8353 23.625 22.9401 23.5497 22.985 23.4291C22.985 23.4141 23 23.399 23 23.3839L23 7.14174C22.985 7.09654 22.9701 7.0212 22.9401 6.99107C22.8503 6.8856 22.7305 6.85547 22.6406 6.82533C22.5957 6.81027 21.6823 6.50893 20.4095 6.07199L20.4095 0.286273L12.054 3.26953C11.9492 3.2394 2.63541 1.78033e-06 2.50065 1.79211e-06C2.33594 1.80651e-06 2.20117 0.120538 2.20117 0.316408L2.20117 6.6144L-1.26719e-06 7.32255Z" fill="white"/>
</g>
<defs>
<clipPath id="clip0_230_173">
<rect width="23" height="27" fill="white" transform="matrix(-1 8.74228e-08 8.74228e-08 1 23 0)"/>
</clipPath>
</defs>
</svg>
