<?xml version="1.0" encoding="iso-8859-1"?>
<!-- Uploaded to: SVG Repo, www.svgrepo.com, Generator: SVG Repo Mixer Tools -->
<svg height="800px" width="800px" version="1.1" id="Layer_1" xmlns="http://www.w3.org/2000/svg" xmlns:xlink="http://www.w3.org/1999/xlink" 
	 viewBox="0 0 496.2 496.2" xml:space="preserve">
<path style="fill:#EA4949;" d="M496.2,248.1C496.2,111.1,385.1,0,248.1,0S0,111.1,0,248.1s111.1,248.1,248.1,248.1
	S496.2,385.1,496.2,248.1z"/>
<path style="fill:#EFCE2B;" d="M399.7,158.5C369,106.7,312.6,72,248.1,72C150.9,72,72,150.8,72,248.1c0,97.2,78.8,176.1,176.1,176.1
	c64.5,0,120.9-34.7,151.5-86.4l-152.8-89.6L399.7,158.5z M225,157.4c0-12,9.7-21.8,21.8-21.8c12.1,0,21.8,9.7,21.8,21.8
	s-9.7,21.8-21.8,21.8S225,169.4,225,157.4z"/>
</svg>